<svg aria-hidden="true" style="position: absolute; width: 0; height: 0; overflow: hidden;" version="1.1" xmlns="http://www.w3.org/2000/svg" xmlns:xlink="http://www.w3.org/1999/xlink">
<defs>
<symbol id="icon-two" viewBox="0 0 25 32">
<path  d="M0.012 10.664c0-3.19 1.157-5.754 3.47-7.694 2.313-1.954 5.388-2.931 9.224-2.931 3.736 0 6.695 0.869 8.879 2.608 2.198 1.724 3.297 4.009 3.297 6.853 0 0.805-0.136 1.624-0.409 2.457-0.273 0.819-0.589 1.523-0.948 2.112-0.345 0.589-0.798 1.207-1.358 1.853-0.546 0.647-0.984 1.128-1.315 1.444s-0.733 0.682-1.207 1.099l-7.306 6.466v0.172h12.909v6.897h-24.698v-6.078l12.5-11.056c1.063-0.948 1.832-1.818 2.306-2.608 0.489-0.805 0.733-1.631 0.733-2.478 0-0.862-0.33-1.573-0.991-2.134-0.661-0.575-1.566-0.862-2.716-0.862-1.193 0-2.17 0.359-2.931 1.078-0.747 0.718-1.121 1.645-1.121 2.78v0.194h-8.319v-0.172z"></path>
</symbol>
<symbol id="icon-one" viewBox="0 0 18 32">
<path d="M8.163 32v-23.936h-0.177l-7.846 5.186v-7.868l8.023-5.363h9.397v31.981h-9.397z"></path>
</symbol>
<symbol id="icon-pinterest" viewBox="0 0 24 32">
<path fill="#fff" style="fill: var(--color2, #fff)" d="M12.504 0c-8.312 0-12.502 5.932-12.502 10.88 0 2.995 1.139 5.659 3.582 6.653 0.401 0.163 0.76 0.005 0.876-0.436 0.081-0.305 0.273-1.076 0.357-1.398 0.118-0.436 0.072-0.589-0.251-0.97-0.706-0.827-1.155-1.898-1.155-3.416 0-4.401 3.308-8.34 8.613-8.34 4.697 0 7.277 2.858 7.277 6.673 0 5.022-2.232 9.26-5.546 9.26-1.829 0-3.198-1.507-2.76-3.355 0.527-2.205 1.544-4.586 1.544-6.179 0-1.425-0.768-2.614-2.36-2.614-1.869 0-3.372 1.927-3.372 4.507 0 1.645 0.557 2.757 0.557 2.757s-1.915 8.074-2.25 9.489c-0.669 2.816-0.099 6.269-0.052 6.619 0.029 0.205 0.295 0.254 0.416 0.099 0.172-0.226 2.4-2.963 3.158-5.699 0.214-0.775 1.229-4.787 1.229-4.787 0.608 1.154 2.385 2.171 4.273 2.171 5.624 0 9.438-5.105 9.438-11.936 0-5.165-4.394-9.977-11.074-9.977z"></path>
</symbol>
<symbol id="icon-linkedin" viewBox="0 0 32 32">
<path fill="#fff" style="fill: var(--color2, #fff)" d="M29.619 30.421h-27.238c-1.306 0-2.363-0.926-2.363-2.069v-24.701c0-1.141 1.058-2.067 2.363-2.067h27.238c1.304 0 2.362 0.926 2.362 2.067v24.701c0 1.142-1.058 2.069-2.362 2.069zM5.557 25.67h4.707v-13.019h-4.707v13.019zM7.942 6.376c-1.611 0-2.662 0.971-2.662 2.25 0 1.248 1.021 2.25 2.6 2.25h0.030c1.642 0 2.662-1.002 2.662-2.25-0.029-1.278-1.021-2.25-2.63-2.25zM27.237 18.206c0-4-2.323-5.861-5.419-5.861-2.499 0-3.616 1.262-4.242 2.15v-1.845h-4.707c0.062 1.222 0 13.019 0 13.019h4.707v-7.27c0-0.387 0.030-0.778 0.155-1.054 0.339-0.778 1.115-1.582 2.414-1.582 1.704 0 2.384 1.194 2.384 2.944v6.963h4.707v-7.464zM17.544 14.539c0.010-0.014 0.022-0.029 0.032-0.043v0.043h-0.032z"></path>
</symbol>
<symbol id="icon-twitter" viewBox="0 0 41 32">
<path fill="#fff" style="fill: var(--color2, #fff)" d="M39.544 3.569c-1.455 0.606-3.019 1.011-4.659 1.195 1.675-0.941 2.961-2.432 3.567-4.205-1.57 0.87-3.305 1.502-5.154 1.845-1.478-1.48-3.588-2.402-5.92-2.402-4.48 0-8.115 3.405-8.115 7.603 0 0.597 0.072 1.178 0.211 1.734-6.743-0.318-12.721-3.345-16.723-7.944-0.698 1.124-1.097 2.428-1.097 3.823 0 2.635 1.432 4.966 3.608 6.328-1.329-0.041-2.579-0.382-3.674-0.952 0 0.034 0 0.062 0 0.098 0 3.684 2.795 6.756 6.507 7.454-0.68 0.173-1.399 0.264-2.136 0.264-0.523 0-1.032-0.045-1.527-0.132 1.032 3.017 4.028 5.218 7.578 5.28-2.776 2.039-6.274 3.253-10.076 3.253-0.655 0-1.301-0.036-1.935-0.105 3.59 2.155 7.855 3.416 12.437 3.416 14.923 0 23.083-11.588 23.083-21.634 0-0.331-0.009-0.657-0.024-0.984 1.585-1.073 2.961-2.411 4.049-3.934z"></path>
</symbol>
<symbol id="icon-facebook" viewBox="0 0 17 32">
<path fill="#fff" style="fill: var(--color2, #fff)" d="M10.336 31.988h-6.89v-15.99h-3.444v-5.512h3.444v-3.308c0-4.495 1.945-7.171 7.466-7.171h4.598v5.512h-2.872c-2.152 0-2.294 0.771-2.294 2.21l-0.008 2.757h5.208l-0.61 5.512h-4.598v15.99z"></path>
</symbol>
<symbol id="icon-email" viewBox="0 0 32 32">
<path fill="none" stroke="#fff" style="stroke: var(--color2, #fff)" stroke-linejoin="miter" stroke-linecap="butt" stroke-miterlimit="4" stroke-width="1.6" d="M16.279 17.323l-0-0-0.009 0.006c-0.056 0.038-0.136 0.065-0.223 0.065h-0.007c-0.127 0-0.209-0.043-0.235-0.066l-0.001-0.001-13.604-11.527h27.672l-13.593 11.523zM18.159 19.599l0.002-0.002 1.908-1.619 9.953 8.221h-28.055l9.975-8.282 1.988 1.685c0.586 0.493 1.339 0.753 2.114 0.753s1.528-0.262 2.115-0.757zM9.66 15.983l-8.86 7.358v-14.865l8.86 7.508zM31.2 8.538v14.814l-8.847-7.309 8.847-7.505z"></path>
</symbol>
<symbol id="icon-tel" viewBox="0 0 32 32">
<path fill="none" stroke="#fff" style="stroke: var(--color2, #fff)" stroke-linejoin="miter" stroke-linecap="butt" stroke-miterlimit="4" stroke-width="2" d="M26.308 30.375l-0.020 0.020-0.019 0.021c-0.101 0.113-0.255 0.232-0.488 0.344l-0 0c-0.232 0.112-0.443 0.178-0.635 0.21-0.065 0.004-0.136 0.012-0.19 0.017l-0.010 0.001c0 0-0 0-0 0-0.067 0.007-0.177 0.012-0.341 0.012-0.347 0-0.977-0.063-1.934-0.209-0.85-0.13-1.942-0.46-3.293-1.020h-0c-1.315-0.545-2.835-1.376-4.565-2.506h-0c-1.687-1.103-3.508-2.635-5.463-4.612h0l-0.009-0.009c-1.553-1.531-2.826-2.981-3.827-4.352-1.018-1.395-1.826-2.669-2.43-3.823v-0c-0.614-1.174-1.063-2.216-1.358-3.131-0.307-0.953-0.506-1.748-0.608-2.393-0.109-0.686-0.142-1.164-0.125-1.466 0.016-0.289 0.028-0.513 0.033-0.64 0.032-0.189 0.098-0.396 0.208-0.624 0.113-0.233 0.232-0.387 0.345-0.488l0.020-0.018 4.527-4.527c0.149-0.149 0.264-0.182 0.378-0.182 0.087 0 0.134 0.020 0.18 0.054 0.117 0.088 0.221 0.197 0.313 0.334l3.619 6.865c0.077 0.137 0.106 0.283 0.063 0.49-0.053 0.251-0.156 0.435-0.305 0.584l-1.661 1.661c-0.205 0.205-0.306 0.449-0.36 0.611-0.051 0.152-0.102 0.351-0.102 0.57v0.094l0.018 0.093c0.114 0.599 0.359 1.233 0.701 1.894 0.305 0.609 0.757 1.318 1.336 2.116 0.609 0.84 1.451 1.78 2.509 2.815 1.036 1.059 1.98 1.906 2.83 2.525l0 0c0.81 0.59 1.519 1.048 2.117 1.353 0.545 0.278 1.054 0.496 1.479 0.581 0 0 0 0 0.001 0l0.52 0.104h0.099c0.224 0 0.435-0.068 0.537-0.102l0.001-0c0.161-0.054 0.405-0.154 0.611-0.36l0.006-0.006 1.905-1.939c0.218-0.186 0.451-0.271 0.737-0.271 0.281 0 0.386 0.052 0.401 0.061l0.238 0.143h0.038l6.297 3.72c0.263 0.165 0.348 0.311 0.379 0.429 0.016 0.18-0.031 0.319-0.193 0.482-0 0-0.001 0.001-0.001 0.001l-4.506 4.472z"></path>
</symbol>
<symbol id="icon-location" viewBox="0 0 32 32">
<path fill="none" stroke="#fff" style="stroke: var(--color2, #fff)" stroke-linejoin="miter" stroke-linecap="butt" stroke-miterlimit="4" stroke-width="2" d="M16 30.223l-7.995-11.74c-1.478-2.003-2.15-4.725-1.979-7.438s1.176-5.305 2.909-7.068l7.065 26.246zM16 30.223l7.995-11.74c1.478-2.003 2.15-4.725 1.979-7.438s-1.176-5.305-2.909-7.068c-3.904-3.97-10.226-3.97-14.13 0l7.065 26.246zM11.476 11.077c0 2.576 2.057 4.692 4.631 4.692s4.631-2.117 4.631-4.692c0-2.576-2.057-4.692-4.631-4.692s-4.631 2.117-4.631 4.692z"></path>
</symbol>
<symbol id="icon-check" viewBox="0 0 32 32">
<path d="M10.179 16.364c-0.498-0.464-1.307-0.464-1.805 0s-0.498 1.217 0 1.681l4.513 4.203c0.5 0.466 1.311 0.464 1.809-0.004l10.165-9.552c0.496-0.466 0.493-1.219-0.008-1.681s-1.309-0.459-1.805 0.007l-9.263 8.704-3.606-3.359z"></path>
</symbol>
<symbol id="icon-prev" viewBox="0 0 32 32">
<path d="M28 15.333c0-0.368-0.299-0.667-0.667-0.667h-21.333c-0.368 0-0.667 0.299-0.667 0.667s0.298 0.667 0.667 0.667h21.333c0.368 0 0.667-0.299 0.667-0.667z"></path>
<path d="M11.138 10.195c-0.26-0.26-0.682-0.26-0.943 0l-5.138 5.138 5.138 5.138c0.26 0.26 0.682 0.26 0.943 0s0.26-0.683 0-0.943l-4.195-4.195 4.195-4.195c0.26-0.26 0.26-0.682 0-0.943z"></path>
</symbol>
<symbol id="icon-next" viewBox="0 0 33 32">
<path d="M5.247 15.333c0-0.368 0.298-0.667 0.667-0.667h21.333c0.368 0 0.667 0.299 0.667 0.667s-0.298 0.667-0.667 0.667h-21.333c-0.368 0-0.667-0.299-0.667-0.667z"></path>
<path d="M22.109 10.195c0.26-0.26 0.682-0.26 0.943 0l5.138 5.138-5.138 5.138c-0.26 0.26-0.683 0.26-0.943 0s-0.26-0.683 0-0.943l4.195-4.195-4.195-4.195c-0.26-0.26-0.26-0.682 0-0.943z"></path>
</symbol>
<symbol id="icon-logo" viewBox="0 0 51 32">
<path d="M33.189 15.244l0.93 2.146c0.172 0.395 0.645 0.583 1.058 0.418 0.414-0.163 0.61-0.616 0.438-1.011l-0.93-2.145-1.496 0.592z"></path>
<path d="M33.809 16.675v0z"></path>
<path d="M31.227 10.716v0z"></path>
<path d="M32.378 6.366c0 1.14-0.966 2.064-2.158 2.064-1.193 0-2.16-0.924-2.16-2.064s0.967-2.064 2.16-2.064c1.191 0 2.158 0.924 2.158 2.064z"></path>
<path d="M31.299 6.366c0 0.57-0.483 1.033-1.079 1.033s-1.081-0.462-1.081-1.033c0-0.57 0.484-1.032 1.081-1.032s1.079 0.462 1.079 1.032z"></path>
<path d="M28.706 7.838l-2.953 6.815-0.74 3.058 0.499 0.197 1.738-2.663 0.414-0.953c-0.323-0.745 0.047-1.6 0.826-1.908l1.712-3.954c-0.582-0.005-1.109-0.23-1.496-0.592z"></path>
<path d="M31.733 7.837c-0.386 0.363-0.914 0.588-1.496 0.593l2.54 5.861 1.496-0.592-2.54-5.861z"></path>
<path d="M31.029 3.27v-2.322c-0-0.428-0.364-0.774-0.81-0.774-0.447 0-0.81 0.346-0.81 0.774l0 2.322h1.619z"></path>
<path d="M30.22 4.303c0.138 0 0.273 0.013 0.404 0.037v-1.069h-0.809v1.069c0.131-0.024 0.266-0.037 0.405-0.037z"></path>
<path d="M18.979 18.762h-2.693v-18.589h2.693c0.595 0 1.077 0.463 1.077 1.033v16.524h-0c-0 0.57-0.482 1.032-1.077 1.032z"></path>
<path d="M18.844 1.722c0.223 0 0.404-0.173 0.404-0.387s-0.181-0.387-0.404-0.387c-0.223 0-0.404 0.173-0.404 0.387s0.181 0.387 0.404 0.387z"></path>
<path d="M21.941 11.147c0 0.213 0.181 0.387 0.404 0.387s0.404-0.174 0.404-0.387c0 0.213 0.181 0.387 0.404 0.387s0.404-0.174 0.404-0.387c0 0.213-0.181 0.387-0.404 0.387s-0.404-0.174-0.404-0.387c0 0.213-0.181 0.387-0.404 0.387s-0.404-0.174-0.404-0.387z"></path>
<path d="M22.48 0.173c-0.297 0-0.539 0.232-0.539 0.517v-0 10.844l0.808 3.098 0.808-3.098v-10.844c0-0.285-0.241-0.517-0.539-0.517l-0.538-0z"></path>
<path d="M49.856 22.736h-49.856v9.056h49.856v-9.056z"></path>
</symbol>
</defs>
</svg>
